<svg version="1.1" id="Layer_1" xmlns="http://www.w3.org/2000/svg" xmlns:xlink="http://www.w3.org/1999/xlink" x="0px" y="0px"
	 width="100%" viewBox="0 0 2000 1250" enable-background="new 0 0 2000 1250" xml:space="preserve">
<path fill="#F7E1E1" opacity="1.000000" stroke="none" 
	d="
M966.000000,0.999994 
	C989.020935,1.000000 1012.041809,1.000000 1035.744507,1.376058 
	C1046.121338,2.499759 1055.840210,3.023026 1065.505737,4.048612 
	C1079.361328,5.518773 1093.330811,6.568923 1106.974976,9.221431 
	C1127.090332,13.131927 1147.035767,18.001265 1166.921265,22.989672 
	C1201.998169,31.789000 1235.610474,44.780540 1268.280518,60.134644 
	C1303.860107,76.856201 1337.788452,96.574654 1369.193481,120.231491 
	C1388.834229,135.026443 1408.216064,150.383041 1426.161499,167.149460 
	C1444.523438,184.305054 1461.579346,202.976013 1478.104736,221.943863 
	C1491.849976,237.720551 1504.731445,254.378296 1516.689575,271.555054 
	C1537.341309,301.219849 1554.900024,332.739532 1569.998901,365.639618 
	C1581.313110,390.292938 1591.262695,415.483612 1598.793945,441.481628 
	C1605.128906,463.349640 1610.184204,485.625275 1614.906616,507.911041 
	C1618.357544,524.196716 1620.683105,540.747375 1622.876587,557.264038 
	C1624.455566,569.153137 1625.725708,581.174255 1625.833740,593.148254 
	C1626.043579,616.409363 1625.746460,639.694092 1624.870728,662.939270 
	C1624.289673,678.362122 1622.735962,693.781494 1620.881836,709.113342 
	C1619.255371,722.563293 1617.109497,735.997375 1614.278687,749.242981 
	C1610.672241,766.118042 1606.419312,782.869751 1601.954224,799.543091 
	C1594.479004,827.455933 1584.460205,854.513000 1572.499512,880.785828 
	C1565.250366,896.709351 1557.216309,912.301086 1548.947266,927.726807 
	C1542.408325,939.925110 1535.360229,951.892578 1527.859253,963.524719 
	C1510.795044,989.987549 1492.423096,1015.541321 1470.836792,1038.546753 
	C1455.328979,1055.073975 1439.735596,1071.597046 1423.151733,1087.015625 
	C1407.895264,1101.200195 1391.533691,1114.246704 1375.177002,1127.185425 
	C1350.660522,1146.578857 1324.130005,1163.061035 1296.516968,1177.567505 
	C1276.713135,1187.971558 1256.205811,1197.128052 1235.628296,1205.944580 
	C1210.128052,1216.870361 1183.763062,1225.605225 1156.737549,1231.841675 
	C1134.350586,1237.007690 1111.711548,1241.238037 1089.025513,1244.899536 
	C1073.167847,1247.458862 1057.041016,1248.344971 1041.038818,1250.021240 
	C1039.343750,1250.198853 1037.678833,1250.666626 1036.000000,1251.000000 
	C1012.979126,1251.000000 989.958191,1251.000000 966.254761,1250.624390 
	C961.248413,1250.155396 956.885742,1250.400269 952.607849,1249.908081 
	C936.649292,1248.072266 920.635315,1246.497192 904.799255,1243.875610 
	C886.626404,1240.867310 868.391113,1237.724243 850.600098,1233.051514 
	C828.407471,1227.222656 806.470581,1220.273682 784.731873,1212.898560 
	C756.221191,1203.225952 729.113708,1190.242920 702.627930,1175.946289 
	C678.324585,1162.827515 654.707275,1148.532593 632.792236,1131.775513 
	C612.856873,1116.532104 593.086853,1100.879028 574.757507,1083.783691 
	C556.746948,1066.985596 540.054260,1048.655396 523.879456,1030.044922 
	C510.159729,1014.259216 497.263031,997.629578 485.320343,980.456665 
	C464.683838,950.783081 447.061096,919.296082 432.014404,886.369690 
	C420.741241,861.700867 410.709686,836.534912 403.205048,810.521606 
	C396.894592,788.647644 391.816956,766.381470 387.094452,744.098022 
	C383.641663,727.805786 381.315796,711.248230 379.122040,694.724731 
	C377.543274,682.833496 376.275024,670.810120 376.167053,658.833984 
	C375.957336,635.571228 376.255096,612.285034 377.130371,589.038147 
	C377.705017,573.775574 379.388550,558.534668 381.085327,543.340942 
	C382.391754,531.643005 383.879639,519.900391 386.379181,508.415405 
	C390.427979,489.812256 395.131287,471.340363 399.994171,452.928192 
	C407.798004,423.380890 418.850769,395.000610 431.356110,367.141876 
	C443.434692,340.233917 457.418213,314.330109 473.268463,289.526459 
	C493.498383,257.869171 516.393433,228.119324 542.061523,200.658661 
	C554.072937,187.808350 566.769287,175.519638 579.908813,163.822922 
	C595.103455,150.296738 610.848328,137.346466 626.855957,124.785461 
	C652.207153,104.892715 679.530273,87.901817 708.122375,73.129189 
	C726.114868,63.833008 744.698792,55.644226 763.226135,47.429348 
	C789.659241,35.709091 817.250183,27.264528 845.196350,20.060820 
	C870.042969,13.656075 895.163940,8.497615 920.747986,5.951856 
	C934.481873,4.585260 948.226868,3.331408 961.961609,1.973631 
	C963.326477,1.838706 964.654724,1.333395 966.000000,0.999994 
M1069.266968,497.229126 
	C1104.506348,558.534851 1139.761597,619.831360 1174.914917,681.186462 
	C1176.081543,683.222717 1176.739746,685.850342 1176.747681,688.205261 
	C1176.863525,722.197876 1176.830200,756.190979 1176.816528,790.183960 
	C1176.816040,791.643433 1176.660767,793.102905 1176.572754,794.647156 
	C1160.558472,797.476990 1144.857300,800.251526 1129.223877,803.014099 
	C1129.223877,815.508423 1129.223877,827.578552 1129.223877,839.679688 
	C1180.280273,839.679688 1231.015503,839.679688 1281.854126,839.679688 
	C1281.854126,827.299072 1281.854126,815.206665 1281.854126,803.153687 
	C1280.460327,802.960571 1279.320923,802.841980 1278.196411,802.640930 
	C1265.570923,800.383545 1252.992065,797.795959 1240.299927,796.017883 
	C1235.819458,795.390320 1234.084595,794.340088 1234.107422,789.581848 
	C1234.276001,754.423218 1234.151978,719.263306 1234.291748,684.104431 
	C1234.302246,681.443481 1235.119629,678.493713 1236.436890,676.175293 
	C1249.176392,653.752808 1262.108521,631.439819 1274.975952,609.089966 
	C1303.783447,559.053162 1332.584717,509.012665 1361.391846,458.975647 
	C1362.610962,456.858093 1363.601807,455.175934 1366.791138,454.797211 
	C1376.787964,453.610168 1386.712646,451.761719 1396.619263,449.921356 
	C1398.198730,449.627899 1400.777466,448.088745 1400.803589,447.071838 
	C1401.101196,435.485687 1400.992676,423.889160 1400.992676,412.333679 
	C1352.442017,412.333679 1304.538940,412.333679 1256.466553,412.333679 
	C1256.466553,424.717102 1256.466553,436.799591 1256.466553,449.343018 
	C1273.121216,451.272003 1289.595703,453.180145 1306.744995,455.166443 
	C1272.756714,515.192383 1239.175537,574.499451 1205.388550,634.169800 
	C1173.100952,574.460938 1140.943115,514.991882 1108.605957,455.191162 
	C1125.260010,453.159424 1141.254272,451.208191 1156.965088,449.291504 
	C1156.965088,436.250793 1156.965088,424.330902 1156.965088,412.418274 
	C1107.778076,412.418274 1058.910034,412.418274 1009.865906,412.418274 
	C1009.865906,423.962677 1009.776306,435.124908 1009.993591,446.281128 
	C1010.017395,447.503265 1011.637390,449.529297 1012.801636,449.762634 
	C1022.445557,451.695923 1032.182983,453.163025 1041.824463,455.107391 
	C1043.718262,455.489319 1045.983398,456.928833 1046.949341,458.551941 
	C1054.436890,471.132416 1061.647339,483.877686 1069.266968,497.229126 
M601.000000,427.503693 
	C601.000000,456.606476 601.000000,485.709259 601.000000,514.836548 
	C615.849731,514.836548 630.102722,514.836548 644.564209,514.836548 
	C645.603394,507.273102 646.580261,499.955475 647.619873,492.646790 
	C649.117981,482.115143 651.005066,471.622864 652.017151,461.045959 
	C652.422424,456.811340 653.758118,455.837921 657.677673,455.854828 
	C687.008362,455.981323 716.339844,455.923645 745.671082,455.923645 
	C746.959412,455.923645 748.247681,455.923645 749.741394,455.923645 
	C749.741394,569.101440 749.741394,681.835693 749.741394,794.761902 
	C733.775208,797.525513 718.032654,800.250427 702.391785,802.957764 
	C702.391785,815.505554 702.391785,827.582764 702.391785,839.683594 
	C753.637024,839.683594 804.551392,839.683594 855.661255,839.683594 
	C855.661255,827.322083 855.661255,815.243042 855.661255,802.990845 
	C839.647644,800.212769 823.837952,797.470093 808.237915,794.763794 
	C808.237915,681.473816 808.237915,568.883362 808.237915,456.172424 
	C840.606812,456.172424 872.697388,456.172424 904.855896,456.172424 
	C907.765564,475.794220 910.640686,495.182373 913.557861,514.854736 
	C927.647278,514.854736 941.885864,514.854736 956.352234,514.854736 
	C956.352234,480.556793 956.352234,446.487793 956.352234,412.319092 
	C837.817688,412.319092 719.585693,412.319092 601.000000,412.319092 
	C601.000000,417.232758 601.000000,421.869110 601.000000,427.503693 
z"/>
<path fill="#4C6971" opacity="1.000000" stroke="none" 
	d="
M965.531372,0.999994 
	C964.654724,1.333395 963.326477,1.838706 961.961609,1.973631 
	C948.226868,3.331408 934.481873,4.585260 920.747986,5.951856 
	C895.163940,8.497615 870.042969,13.656075 845.196350,20.060820 
	C817.250183,27.264528 789.659241,35.709091 763.226135,47.429348 
	C744.698792,55.644226 726.114868,63.833008 708.122375,73.129189 
	C679.530273,87.901817 652.207153,104.892715 626.855957,124.785461 
	C610.848328,137.346466 595.103455,150.296738 579.908813,163.822922 
	C566.769287,175.519638 554.072937,187.808350 542.061523,200.658661 
	C516.393433,228.119324 493.498383,257.869171 473.268463,289.526459 
	C457.418213,314.330109 443.434692,340.233917 431.356110,367.141876 
	C418.850769,395.000610 407.798004,423.380890 399.994171,452.928192 
	C395.131287,471.340363 390.427979,489.812256 386.379181,508.415405 
	C383.879639,519.900391 382.391754,531.643005 381.085327,543.340942 
	C379.388550,558.534668 377.705017,573.775574 377.130371,589.038147 
	C376.255096,612.285034 375.957336,635.571228 376.167053,658.833984 
	C376.275024,670.810120 377.543274,682.833496 379.122040,694.724731 
	C381.315796,711.248230 383.641663,727.805786 387.094452,744.098022 
	C391.816956,766.381470 396.894592,788.647644 403.205048,810.521606 
	C410.709686,836.534912 420.741241,861.700867 432.014404,886.369690 
	C447.061096,919.296082 464.683838,950.783081 485.320343,980.456665 
	C497.263031,997.629578 510.159729,1014.259216 523.879456,1030.044922 
	C540.054260,1048.655396 556.746948,1066.985596 574.757507,1083.783691 
	C593.086853,1100.879028 612.856873,1116.532104 632.792236,1131.775513 
	C654.707275,1148.532593 678.324585,1162.827515 702.627930,1175.946289 
	C729.113708,1190.242920 756.221191,1203.225952 784.731873,1212.898560 
	C806.470581,1220.273682 828.407471,1227.222656 850.600098,1233.051514 
	C868.391113,1237.724243 886.626404,1240.867310 904.799255,1243.875610 
	C920.635315,1246.497192 936.649292,1248.072266 952.607849,1249.908081 
	C956.885742,1250.400269 961.248413,1250.155396 965.786133,1250.624390 
	C644.377441,1251.000000 322.754913,1251.000000 1.066175,1251.000000 
	C1.066175,834.434631 1.066175,417.869202 1.066175,1.000000 
	C322.354156,1.000000 643.708435,1.000000 965.531372,0.999994 
z"/>
<path fill="#4C6971" opacity="1.000000" stroke="none" 
	d="
M1036.468628,1251.000000 
	C1037.678833,1250.666626 1039.343750,1250.198853 1041.038818,1250.021240 
	C1057.041016,1248.344971 1073.167847,1247.458862 1089.025513,1244.899536 
	C1111.711548,1241.238037 1134.350586,1237.007690 1156.737549,1231.841675 
	C1183.763062,1225.605225 1210.128052,1216.870361 1235.628296,1205.944580 
	C1256.205811,1197.128052 1276.713135,1187.971558 1296.516968,1177.567505 
	C1324.130005,1163.061035 1350.660522,1146.578857 1375.177002,1127.185425 
	C1391.533691,1114.246704 1407.895264,1101.200195 1423.151733,1087.015625 
	C1439.735596,1071.597046 1455.328979,1055.073975 1470.836792,1038.546753 
	C1492.423096,1015.541321 1510.795044,989.987549 1527.859253,963.524719 
	C1535.360229,951.892578 1542.408325,939.925110 1548.947266,927.726807 
	C1557.216309,912.301086 1565.250366,896.709351 1572.499512,880.785828 
	C1584.460205,854.513000 1594.479004,827.455933 1601.954224,799.543091 
	C1606.419312,782.869751 1610.672241,766.118042 1614.278687,749.242981 
	C1617.109497,735.997375 1619.255371,722.563293 1620.881836,709.113342 
	C1622.735962,693.781494 1624.289673,678.362122 1624.870728,662.939270 
	C1625.746460,639.694092 1626.043579,616.409363 1625.833740,593.148254 
	C1625.725708,581.174255 1624.455566,569.153137 1622.876587,557.264038 
	C1620.683105,540.747375 1618.357544,524.196716 1614.906616,507.911041 
	C1610.184204,485.625275 1605.128906,463.349640 1598.793945,441.481628 
	C1591.262695,415.483612 1581.313110,390.292938 1569.998901,365.639618 
	C1554.900024,332.739532 1537.341309,301.219849 1516.689575,271.555054 
	C1504.731445,254.378296 1491.849976,237.720551 1478.104736,221.943863 
	C1461.579346,202.976013 1444.523438,184.305054 1426.161499,167.149460 
	C1408.216064,150.383041 1388.834229,135.026443 1369.193481,120.231491 
	C1337.788452,96.574654 1303.860107,76.856201 1268.280518,60.134644 
	C1235.610474,44.780540 1201.998169,31.789000 1166.921265,22.989672 
	C1147.035767,18.001265 1127.090332,13.131927 1106.974976,9.221431 
	C1093.330811,6.568923 1079.361328,5.518773 1065.505737,4.048612 
	C1055.840210,3.023026 1046.121338,2.499759 1036.213135,1.376058 
	C1357.622559,1.000000 1679.244995,1.000000 2000.933838,1.000000 
	C2000.933838,417.565308 2000.933838,834.130615 2000.933838,1251.000000 
	C1679.645874,1251.000000 1358.291504,1251.000000 1036.468628,1251.000000 
z"/>
<path fill="#ED1804" opacity="1.000000" stroke="none" 
	d="
M1069.105225,496.900574 
	C1061.647339,483.877686 1054.436890,471.132416 1046.949341,458.551941 
	C1045.983398,456.928833 1043.718262,455.489319 1041.824463,455.107391 
	C1032.182983,453.163025 1022.445557,451.695923 1012.801636,449.762634 
	C1011.637390,449.529297 1010.017395,447.503265 1009.993591,446.281128 
	C1009.776306,435.124908 1009.865906,423.962677 1009.865906,412.418274 
	C1058.910034,412.418274 1107.778076,412.418274 1156.965088,412.418274 
	C1156.965088,424.330902 1156.965088,436.250793 1156.965088,449.291504 
	C1141.254272,451.208191 1125.260010,453.159424 1108.605957,455.191162 
	C1140.943115,514.991882 1173.100952,574.460938 1205.388550,634.169800 
	C1239.175537,574.499451 1272.756714,515.192383 1306.744995,455.166443 
	C1289.595703,453.180145 1273.121216,451.272003 1256.466553,449.343018 
	C1256.466553,436.799591 1256.466553,424.717102 1256.466553,412.333679 
	C1304.538940,412.333679 1352.442017,412.333679 1400.992676,412.333679 
	C1400.992676,423.889160 1401.101196,435.485687 1400.803589,447.071838 
	C1400.777466,448.088745 1398.198730,449.627899 1396.619263,449.921356 
	C1386.712646,451.761719 1376.787964,453.610168 1366.791138,454.797211 
	C1363.601807,455.175934 1362.610962,456.858093 1361.391846,458.975647 
	C1332.584717,509.012665 1303.783447,559.053162 1274.975952,609.089966 
	C1262.108521,631.439819 1249.176392,653.752808 1236.436890,676.175293 
	C1235.119629,678.493713 1234.302246,681.443481 1234.291748,684.104431 
	C1234.151978,719.263306 1234.276001,754.423218 1234.107422,789.581848 
	C1234.084595,794.340088 1235.819458,795.390320 1240.299927,796.017883 
	C1252.992065,797.795959 1265.570923,800.383545 1278.196411,802.640930 
	C1279.320923,802.841980 1280.460327,802.960571 1281.854126,803.153687 
	C1281.854126,815.206665 1281.854126,827.299072 1281.854126,839.679688 
	C1231.015503,839.679688 1180.280273,839.679688 1129.223877,839.679688 
	C1129.223877,827.578552 1129.223877,815.508423 1129.223877,803.014099 
	C1144.857300,800.251526 1160.558472,797.476990 1176.572754,794.647156 
	C1176.660767,793.102905 1176.816040,791.643433 1176.816528,790.183960 
	C1176.830200,756.190979 1176.863525,722.197876 1176.747681,688.205261 
	C1176.739746,685.850342 1176.081543,683.222717 1174.914917,681.186462 
	C1139.761597,619.831360 1104.506348,558.534851 1069.105225,496.900574 
z"/>
<path fill="#ED1703" opacity="1.000000" stroke="none" 
	d="
M601.000000,427.004578 
	C601.000000,421.869110 601.000000,417.232758 601.000000,412.319092 
	C719.585693,412.319092 837.817688,412.319092 956.352234,412.319092 
	C956.352234,446.487793 956.352234,480.556793 956.352234,514.854736 
	C941.885864,514.854736 927.647278,514.854736 913.557861,514.854736 
	C910.640686,495.182373 907.765564,475.794220 904.855896,456.172424 
	C872.697388,456.172424 840.606812,456.172424 808.237915,456.172424 
	C808.237915,568.883362 808.237915,681.473816 808.237915,794.763794 
	C823.837952,797.470093 839.647644,800.212769 855.661255,802.990845 
	C855.661255,815.243042 855.661255,827.322083 855.661255,839.683594 
	C804.551392,839.683594 753.637024,839.683594 702.391785,839.683594 
	C702.391785,827.582764 702.391785,815.505554 702.391785,802.957764 
	C718.032654,800.250427 733.775208,797.525513 749.741394,794.761902 
	C749.741394,681.835693 749.741394,569.101440 749.741394,455.923645 
	C748.247681,455.923645 746.959412,455.923645 745.671082,455.923645 
	C716.339844,455.923645 687.008362,455.981323 657.677673,455.854828 
	C653.758118,455.837921 652.422424,456.811340 652.017151,461.045959 
	C651.005066,471.622864 649.117981,482.115143 647.619873,492.646790 
	C646.580261,499.955475 645.603394,507.273102 644.564209,514.836548 
	C630.102722,514.836548 615.849731,514.836548 601.000000,514.836548 
	C601.000000,485.709259 601.000000,456.606476 601.000000,427.004578 
z"/>
</svg>